PathFileType	4	(X/Y/Z)	9_coords_data.trc
DataRate	CameraRate	NumFrames	NumMarkers	Units	OrigDataRate	OrigDataStartFrame	OrigNumFrames
30.0	30.0	5	21	m	30.0	10	47
Frame#	Time	THUMB_TIP	THUMB_IP	THUMB_MCP	THUMB_CMC	INDEX_TIP	INDEX_DIP	INDEX_PIP	INDEX_MCP	MIDDLE_TIP	MIDDLE_DIP	MIDDLE_PIP	MIDDLE_MCP	RING_TIP	RING_DIP	RING_PIP	RING_MCP	PINKY_TIP	PINKY_DIP	PINKY_PIP	PINKY_MCP	WRIST
X1	Y1	Z1	X2	Y2	Z2	X3	Y3	Z3	X4	Y4	Z4	X5	Y5	Z5	X6	Y6	Z6	X7	Y7	Z7	X8	Y8	Z8	X9	Y9	Z9	X10	Y10	Z10	X11	Y11	Z11	X12	Y12	Z12	X13	Y13	Z13	X14	Y14	Z14	X15	Y15	Z15	X16	Y16	Z16	X17	Y17	Z17	X18	Y18	Z18	X19	Y19	Z19	X20	Y20	Z20	X21	Y21	Z21
8	0.2999999999999987	0.5432279259000135	-0.03011758371350451	-0.13935137836509792	0.5215716618131012	-0.02910847776312256	-0.13173639767051865	0.49594466104218204	-0.022692585255073172	-0.11527695798344306	0.4754002799727073	-0.030246291420055832	-0.0764084626479491	0.543758936317051	0.0784579259139273	-0.15871497336220627	0.5357236494163946	0.06475224474808322	-0.15002081048103325	0.5238001193297105	0.04872219039050174	-0.13476051492147978	0.5067617899843779	0.017274409604925767	-0.11164410276945358	0.5395366434013633	-0.027796018918232857	-0.12972634540519642	0.542166653455325	-0.010079011441340657	-0.12704479861653017	0.5496330707933875	0.017757332570587703	-0.12270888877158864	0.5195641119963267	0.02098053129214983	-0.08982094830913379	0.5432772209322524	-0.029691772132176747	-0.11895442947248358	0.5544707041622281	-0.016644108405979574	-0.11352631705025695	0.5627278027842632	0.00324381659817341	-0.10101749055153303	0.5324402330515687	0.008207085405912362	-0.07469734776260989	0.6021466685944366	0.016034170964985606	-0.05878098275477739	0.5867509765755101	0.008582315810173935	-0.058115759476416284	0.566932352850365	0.0016822012341964898	-0.05746568911137673	0.5346980504994764	-0.01350479503159846	-0.06305034195414427	0.462283081001861	-0.023011742144276925	-0.051989820119430985
9	0.33333333333333187	0.5432951385073762	-0.030246847949324696	-0.13932743960427096	0.5216398650618268	-0.02922369276352424	-0.13171151645180568	0.49602502811954996	-0.02276822461591882	-0.11524861696794148	0.4754449076580105	-0.030246361696681906	-0.07638441611947627	0.5438639597831432	0.07834591373604871	-0.15869893738622148	0.5358440822408048	0.06460985716601297	-0.15003854974416556	0.5239278285315888	0.048540070158327564	-0.13481440194978242	0.5068777941385048	0.017130795942687016	-0.11165430880572627	0.5395683347944594	-0.02790890255167791	-0.12965551879546902	0.5422000957553414	-0.010189794946350916	-0.12698961183617336	0.5497381874681327	0.0176283815215747	-0.12266112695934903	0.5196264697634265	0.0209023180205124	-0.08981734950192169	0.5432398632798973	-0.029827788167833658	-0.11888846911699952	0.5544603960588881	-0.0167935553440966	-0.11348398774944846	0.562761645135325	0.0030887419244588488	-0.10099545308377397	0.5324648627894749	0.008146841516716963	-0.07470398218534374	0.6022040644356684	0.015856999452330267	-0.05851482193062579	0.5867922120054239	0.008432287063299515	-0.05792452487952482	0.5669584346183403	0.0015699484105058392	-0.05734005779406631	0.5347055563263281	-0.013538337852321392	-0.0630299592941912	0.4622830810018608	-0.023011742144276953	-0.051989820119430985
10	0.3666666666666651	0.5434881259337973	-0.030357164992201285	-0.13914341909828154	0.5218031612378878	-0.029364749183781458	-0.1316083400011283	0.4961531194493334	-0.02292248667796748	-0.11519515596963723	0.47550156318649917	-0.0302757361147159	-0.07634502152142786	0.5439012549880046	0.07836507128368414	-0.15860887166258206	0.5358821370374184	0.0645866034010893	-0.15001541077054972	0.5239427657472593	0.04845731096557049	-0.13487251898181782	0.5069193689080018	0.017068553937135855	-0.11166506357923092	0.5396753855761985	-0.02788710679944953	-0.12941452845530696	0.542231233819184	-0.010146157386577592	-0.12682100697115717	0.5497445292162764	0.01769066759158633	-0.12256999327897711	0.5196248638228531	0.020975557932639444	-0.08973459815366328	0.5431590678931639	-0.029809762569992904	-0.11859030984926575	0.5544185737495443	-0.016776506668150393	-0.11326510858854066	0.5627538693566594	0.0031437852848170134	-0.10086007756679186	0.532433552938884	0.008284160229162063	-0.07461172920432285	0.6020079537280799	0.01637223667034099	-0.05768289608602761	0.5866310676723806	0.008862450888139306	-0.05728984044686097	0.5668306224416295	0.0018907368734346064	-0.05690307002244954	0.5347056290730267	-0.013375384464213047	-0.06288753251890183	0.4622830810018608	-0.023011742144276925	-0.051989820119430985
11	0.39999999999999825	0.5437889855133269	-0.030373091274270875	-0.13877365961201668	0.5220473256869684	-0.02949592931577638	-0.13138916132889128	0.4963049168668181	-0.023061513701776087	-0.11511812313698244	0.47561729101188566	-0.030318393229928298	-0.07626905833485087	0.5440082131402717	0.07831669870709096	-0.15856779823589756	0.5358890944890528	0.06456628361642869	-0.15002344354043246	0.5238061607710929	0.04846827450590352	-0.13496135044402519	0.5067917598022269	0.01707123372412328	-0.11175850398463838	0.5396906519063289	-0.02768507507266285	-0.12902767477060142	0.5421822984094785	-0.009916299050558186	-0.12656550166953404	0.549643465631121	0.01796795615307134	-0.12253948062766745	0.5194786979121142	0.021163648920782208	-0.08973670243445989	0.5429105626747842	-0.029549668011180946	-0.11814950820641079	0.5542279734689917	-0.016501581919189157	-0.11298582132094537	0.5626348453923259	0.0034926542670994376	-0.10074919585509223	0.5323017008944627	0.008644953998465266	-0.07451801238293604	0.6016711419771931	0.017288704617767492	-0.05673309691293549	0.5863312946079702	0.009695465517344792	-0.05655476393014153	0.5665915948493213	0.00254409791661786	-0.05643554196203643	0.5346692247347642	-0.012996276138732554	-0.06278711747438226	0.4622830810018608	-0.023011742144276925	-0.051989820119430985
12	0.43333333333333146	0.5440633760277377	-0.03028491920339771	-0.13840522260797075	0.522249458384292	-0.029514544089843303	-0.13122472685702244	0.49640704714759964	-0.0231809446739471	-0.11507309226752571	0.4756985205292976	-0.030341502205975923	-0.07621729036961628	0.5446205414832681	0.07804174991209617	-0.15848489363690216	0.5361643454870926	0.06450215052447711	-0.14993083040957866	0.5237003299159356	0.048635573843119784	-0.1349338342684653	0.5065410594214264	0.01724687435085953	-0.1118265827166072	0.539630717406343	-0.027233274518709827	-0.12852732118375781	0.5420266661534785	-0.009435466106972323	-0.12618265802240933	0.5494594037292759	0.018494498696144723	-0.12243018840548073	0.5192122835184959	0.021546344668658346	-0.0896896038640482	0.5427377577848198	-0.028946561390551573	-0.11753967384945216	0.5541094508015456	-0.01586150704605127	-0.11259336707218615	0.5625233704127125	0.004236897305322229	-0.10053351308030412	0.5321166899174972	0.009171444618992941	-0.07434563691458468	0.6015604585491083	0.01784943982471421	-0.05606827996298386	0.5861737510848266	0.010349976747210277	-0.05598291628352875	0.5664409454359896	0.0031789171659680204	-0.0560485265533065	0.5346168216862563	-0.01246598096915763	-0.06263227631337576	0.462283081001861	-0.023011742144276898	-0.051989820119430985
